<?xml version="1.0" encoding="UTF-8" standalone="no"?>
<svg
   viewBox="0 0 477.55 117.63"
   version="1.1"
   id="svg32"
   sodipodi:docname="logo.svg"
   inkscape:version="1.2 (56b05e47e7, 2022-06-09, custom)"
   xmlns:inkscape="http://www.inkscape.org/namespaces/inkscape"
   xmlns:sodipodi="http://sodipodi.sourceforge.net/DTD/sodipodi-0.dtd"
   xmlns="http://www.w3.org/2000/svg"
   xmlns:svg="http://www.w3.org/2000/svg">
  <sodipodi:namedview
     id="namedview34"
     pagecolor="#ffffff"
     bordercolor="#000000"
     borderopacity="0.25"
     inkscape:showpageshadow="2"
     inkscape:pageopacity="0.0"
     inkscape:pagecheckerboard="0"
     inkscape:deskcolor="#d1d1d1"
     showgrid="false"
     inkscape:zoom="2.9002199"
     inkscape:cx="238.60259"
     inkscape:cy="58.961045"
     inkscape:window-width="1920"
     inkscape:window-height="1011"
     inkscape:window-x="0"
     inkscape:window-y="32"
     inkscape:window-maximized="1"
     inkscape:current-layer="Camada_2" />
  <defs
     id="defs4">
    <style
       id="style2">.cls-1{fill:#364a73;}.cls-2{fill:#00abe4;}.cls-3{font-size:82.18px;font-family:RobotoCondensed-BoldItalic, Roboto Condensed;font-weight:700;}.cls-3,.cls-6{font-style:italic;}.cls-4{letter-spacing:-0.01em;}.cls-5{letter-spacing:0em;}.cls-6{font-size:22.11px;font-family:RobotoCondensed-Italic, Roboto Condensed;}.cls-7{letter-spacing:-0.01em;}.cls-8{letter-spacing:-0.01em;}.cls-9{letter-spacing:-0.01em;}</style>
  </defs>
  <g
     id="Camada_2"
     data-name="Camada 2">
    <polygon
       class="cls-1"
       points="33.97,117.32 9.16,117.32 119.33,0 144.14,0 "
       id="polygon6" />
    <polygon
       class="cls-2"
       points="31.29,18.1 47.82,49.83 34.64,63.91 0,0 94.75,0 77.77,18.1 "
       id="polygon8" />
    <polygon
       class="cls-2"
       points="121.48,99.53 104.94,67.79 118.12,53.72 152.76,117.63 58.01,117.63 74.99,99.53 "
       id="polygon10" />
    <path
       d="m 195.86983,22.70887 -1.84584,10.67377 h 5.61777 l -1.4847,8.547041 h -5.61777 l -3.69168,21.869189 -0.12038,1.284063 q -0.16051,2.688506 2.24711,2.768759 0.68216,0.04013 2.72863,-0.200634 l -1.00317,8.908183 q -2.48787,1.003174 -5.77828,1.003174 -4.85536,-0.08025 -7.30311,-3.491045 -2.44774,-3.410791 -1.88597,-9.309453 l 3.73181,-22.832236 h -4.89549 l 1.4847,-8.547041 h 4.85536 l 1.88597,-10.67377 z"
       id="path206"
       style="font-style:italic;font-weight:700;font-size:82.18px;font-family:RobotoCondensed-BoldItalic, 'Roboto Condensed'" />
    <path
       d="m 215.73267,37.234827 q 4.13308,-4.775107 9.10882,-4.694853 4.77511,0.08025 7.3031,3.531171 2.528,3.450918 2.528,9.590342 l -0.20063,3.812061 -4.57448,27.326455 h -11.11516 l 4.53434,-27.446836 0.20064,-2.36749 q 0.16051,-4.895489 -3.49105,-4.895489 -2.64838,-0.08025 -5.13625,2.808887 l -5.57764,31.900928 h -11.11517 l 10.7139,-61.635 h 11.07504 z"
       id="path208"
       style="font-style:italic;font-weight:700;font-size:82.18px;font-family:RobotoCondensed-BoldItalic, 'Roboto Condensed'" />
    <path
       d="m 260.99587,32.580101 q 6.58082,0.160507 10.2725,4.454091 3.69168,4.293584 4.05282,11.516436 v 2.849014 q -0.52165,12.599863 -6.05917,19.541826 -5.49739,6.901836 -14.36545,6.661074 -5.17637,-0.120381 -8.54704,-2.76876 -3.37066,-2.688506 -4.85536,-7.423486 -1.44457,-4.734981 -0.80254,-10.874404 l 0.24076,-2.166856 q 1.16369,-10.232373 6.5407,-16.090908 5.37701,-5.898662 13.52278,-5.698027 z m -9.38971,28.490136 q 0,6.941963 4.25346,7.182725 5.77828,0.321016 7.50374,-8.82793 l 0.4414,-2.88914 q 0.56178,-5.778282 0.56178,-7.423487 0,-6.901836 -4.37384,-7.182724 -3.17003,-0.160508 -5.21651,2.929267 -2.04647,3.089776 -2.60825,8.948311 -0.56178,5.818408 -0.56178,7.262978 z"
       id="path210"
       style="font-style:italic;font-weight:700;font-size:82.18px;font-family:RobotoCondensed-BoldItalic, 'Roboto Condensed'" />
    <path
       d="m 296.02671,33.342513 -0.72229,4.092949 q 4.49422,-5.015869 10.23238,-4.855361 6.21967,0.160507 8.10564,5.858535 4.93562,-6.019043 10.99479,-5.898662 4.57447,0.08025 6.98209,3.450918 2.44774,3.330537 2.40761,9.510087 l -0.20063,3.69168 -4.57447,27.607344 h -11.11517 l 4.6146,-27.687598 0.20063,-2.247109 q 0.32102,-4.815234 -3.21015,-4.815234 -2.84902,0 -5.21651,3.892314 l -0.24076,1.926094 -5.01587,28.931533 h -11.07504 l 4.57448,-27.607344 0.24076,-2.247109 q 0.32101,-4.895488 -3.17003,-4.895488 -1.68533,0 -2.88914,0.963046 -1.16368,0.92292 -2.16686,2.206983 l -5.49739,31.579912 h -11.07504 l 7.54387,-43.417363 z"
       id="path212"
       style="font-style:italic;font-weight:700;font-size:82.18px;font-family:RobotoCondensed-BoldItalic, 'Roboto Condensed'" />
    <path
       d="m 358.34387,76.800003 q -0.32102,-1.364316 -0.32102,-3.370664 -3.69168,4.21333 -8.42666,4.21333 -5.01587,-0.08025 -8.06552,-3.69168 -3.00952,-3.611425 -2.76876,-8.988437 0.36115,-6.901836 5.37701,-10.794151 5.01587,-3.932441 13.48266,-3.932441 h 3.25028 l 0.52165,-3.531172 0.12039,-1.805713 q 0,-3.491045 -2.80889,-3.491045 -3.89232,-0.120381 -4.73498,4.975742 l -11.03491,0.08025 q 0.36114,-6.17955 5.13625,-10.071865 4.7751,-3.932441 11.63681,-3.852187 6.46044,0.160507 9.87123,4.092949 3.45092,3.892314 2.80889,10.312627 l -3.53117,22.069824 -0.16051,2.126729 q -0.16051,2.808886 0.56178,4.935615 l -0.0401,0.722285 z m -5.69803,-8.025391 q 2.92927,0.08025 5.45726,-2.568125 l 1.96623,-9.189072 h -2.40762 q -3.21016,0.160508 -5.17638,2.166856 -1.96622,2.006347 -2.36749,5.055996 l -0.0401,1.524824 q 0,1.284062 0.64203,2.126728 0.68216,0.842666 1.9261,0.882793 z"
       id="path214"
       style="font-style:italic;font-weight:700;font-size:82.18px;font-family:RobotoCondensed-BoldItalic, 'Roboto Condensed'" />
    <path
       d="m 389.8143,67.370169 h 16.3718 l -1.6452,9.429834 h -29.81433 l 1.32419,-7.624121 20.545,-26.323281 h -15.60939 l 1.68534,-9.469961 H 411.844 l -1.28406,7.383359 z"
       style="font-style:italic;font-weight:700;font-size:82.18px;font-family:RobotoCondensed-BoldItalic, 'Roboto Condensed';letter-spacing:-0.01em"
       id="path216" />
    <path
       d="m 434.31171,32.580101 q 6.58082,0.160507 10.2725,4.454091 3.69168,4.293584 4.05283,11.516436 v 2.849014 q -0.52166,12.599863 -6.05917,19.541826 -5.4974,6.901836 -14.36545,6.661074 -5.17638,-0.120381 -8.54705,-2.76876 -3.37066,-2.688506 -4.85536,-7.423486 -1.44457,-4.734981 -0.80254,-10.874404 l 0.24077,-2.166856 q 1.16368,-10.232373 6.54069,-16.090908 5.37701,-5.898662 13.52278,-5.698027 z m -9.3897,28.490136 q 0,6.941963 4.25345,7.182725 5.77828,0.321016 7.50374,-8.82793 l 0.4414,-2.88914 q 0.56178,-5.778282 0.56178,-7.423487 0,-6.901836 -4.37384,-7.182724 -3.17003,-0.160508 -5.21651,2.929267 -2.04647,3.089776 -2.60825,8.948311 -0.56177,5.818408 -0.56177,7.262978 z"
       style="font-style:italic;font-weight:700;font-size:82.18px;font-family:RobotoCondensed-BoldItalic, 'Roboto Condensed';letter-spacing:0em"
       id="path218" />
    <path
       d="m 473.75651,22.70887 -1.84584,10.67377 h 5.61777 l -1.4847,8.547041 h -5.61777 l -3.69168,21.869189 -0.12038,1.284063 q -0.16051,2.688506 2.24711,2.768759 0.68216,0.04013 2.72863,-0.200634 l -1.00317,8.908183 q -2.48787,1.003174 -5.77828,1.003174 -4.85536,-0.08025 -7.30311,-3.491045 -2.44774,-3.410791 -1.88596,-9.309453 l 3.7318,-22.832236 h -4.89549 l 1.4847,-8.547041 h 4.85536 l 1.88597,-10.67377 z"
       style="font-style:italic;font-weight:700;font-size:82.18px;font-family:RobotoCondensed-BoldItalic, 'Roboto Condensed';letter-spacing:0em"
       id="path220" />
    <g
       aria-label="Front-End Developer"
       id="text28"
       class="cls-6"
       style="font-style:italic;font-size:22.11px;font-family:RobotoCondensed-Italic, 'Roboto Condensed'">
      <path
         d="m 182.59866,98.898233 h -5.14964 L 176.25067,105.84 h -1.93246 l 2.72056,-15.718832 h 7.95658 l -0.30229,1.705752 h -6.01331 l -0.93924,5.376357 h 5.16044 z"
         id="path231" />
      <path
         d="m 190.65584,95.940157 q -0.46423,-0.09716 -0.83129,-0.09716 -1.41426,0 -2.33191,1.630181 L 186.04599,105.84 h -1.86769 l 2.02963,-11.681166 1.80291,-0.0108 -0.2591,1.198345 q 1.02561,-1.457447 2.31032,-1.425059 0.2591,0.0108 0.7989,0.161939 z"
         id="path233" />
      <path
         d="m 191.35481,99.481212 q 0.35627,-2.515444 1.71655,-4.048462 1.37108,-1.543814 3.45469,-1.489834 1.2955,0.03239 2.15918,0.755713 0.86367,0.712529 1.23073,1.975649 0.37785,1.26312 0.20512,2.785342 l -0.12955,1.10118 q -0.35626,2.50465 -1.72734,4.02687 -1.37108,1.52222 -3.4439,1.46824 -1.2955,-0.0324 -2.15918,-0.74491 -0.86367,-0.71253 -1.24152,-1.97565 -0.36706,-1.26312 -0.19433,-2.77455 z m 1.67337,1.867688 q -0.0324,1.44665 0.44263,2.24555 0.48581,0.7989 1.45744,0.84208 1.25233,0.054 2.07282,-0.88526 0.82048,-0.95004 1.10118,-2.83933 l 0.16194,-1.263116 0.054,-0.777304 q 0.0324,-1.457447 -0.46423,-2.256343 -0.48581,-0.798897 -1.44665,-0.84208 -1.27391,-0.05398 -2.12679,1.057998 -0.84208,1.101181 -1.09039,3.066035 l -0.12955,1.06879 z"
         id="path235" />
      <path
         d="m 205.23834,94.148038 -0.24831,1.273916 q 1.27392,-1.50063 2.8933,-1.479038 1.11198,0.0108 1.75973,0.755713 0.65855,0.744917 0.74492,2.029629 0.0432,0.744917 -0.0324,1.457446 L 209.08168,105.84 h -1.8569 l 1.28471,-7.686684 0.0432,-0.852876 q 0,-1.651772 -1.36029,-1.68416 -1.11197,-0.03239 -2.07281,1.26312 l -0.32387,0.464224 -1.46825,8.496376 h -1.86769 l 2.02963,-11.681166 z"
         id="path237" />
      <path
         d="m 216.9087,91.330308 -0.49661,2.828526 h 1.71655 l -0.2699,1.543813 h -1.70575 l -1.23073,7.265643 -0.0216,0.43183 q -0.0432,0.91765 0.65855,0.91765 0.2591,0.0108 0.7773,-0.10795 l -0.16194,1.63018 q -0.60457,0.21591 -1.21993,0.19432 -0.98243,0 -1.47904,-0.80969 -0.49661,-0.80969 -0.36706,-2.28873 l 1.18755,-7.233253 h -1.73814 l 0.28069,-1.543813 h 1.71655 l 0.49661,-2.828526 z"
         id="path239" />
      <path
         d="m 222.85724,99.977823 h -4.33995 l 0.29149,-1.63018 h 4.33995 z"
         id="path241" />
      <path
         d="m 232.67071,98.574356 h -5.38715 l -0.97163,5.570684 h 6.28321 l -0.30228,1.69496 h -8.20489 l 2.72057,-15.718832 h 8.11852 l -0.30229,1.705752 h -6.17525 l -0.88527,5.05248 h 5.39795 z"
         id="path243" />
      <path
         d="m 238.34936,94.148038 -0.24831,1.273916 q 1.27392,-1.50063 2.8933,-1.479038 1.11198,0.0108 1.75973,0.755713 0.65855,0.744917 0.74492,2.029629 0.0432,0.744917 -0.0324,1.457446 L 242.1927,105.84 h -1.8569 l 1.28471,-7.686684 0.0432,-0.852876 q 0,-1.651772 -1.36029,-1.68416 -1.11197,-0.03239 -2.07281,1.26312 l -0.32387,0.464224 -1.46825,8.496376 h -1.86769 l 2.02963,-11.681166 z"
         id="path245" />
      <path
         d="m 250.3544,93.953712 q 1.60859,0.04318 2.39669,1.360283 l 1.12277,-6.056499 h 1.86769 L 252.86984,105.84 h -1.69495 l 0.20512,-1.25233 q -1.15516,1.51143 -2.77455,1.46824 -1.45744,-0.0216 -2.25634,-1.13357 -0.7881,-1.11197 -0.7881,-3.18479 0,-0.96083 0.2483,-2.547827 0.24831,-1.586997 0.76651,-2.688179 1.23074,-2.623403 3.77857,-2.547832 z m -2.93649,8.248068 q 0.054,2.14838 1.78133,2.18077 0.61536,0.0216 1.17675,-0.30229 0.56139,-0.33467 1.13357,-1.13356 l 1.01481,-5.916157 q -0.53979,-1.349487 -1.80291,-1.403467 -2.55863,-0.129551 -3.08763,3.756973 -0.2591,1.900081 -0.21592,2.817731 z"
         id="path247" />
      <path
         d="m 261.09631,105.84 2.72057,-15.718832 3.51946,0.0108 q 2.49385,0.05398 3.72459,1.846098 1.23073,1.781324 0.86367,4.68542 l -0.37786,2.526241 q -0.48581,3.227977 -2.27793,4.944517 -1.79212,1.71655 -4.55587,1.70576 z m 4.36155,-14.01308 -2.13759,12.31812 1.41426,0.0108 q 2.00804,0.0216 3.26036,-1.19835 1.25233,-1.23073 1.63018,-3.702992 l 0.39945,-2.634199 q 0.10796,-0.852876 0.0864,-1.694956 -0.054,-1.435855 -0.77731,-2.234751 -0.71253,-0.809693 -2.05122,-0.852876 z"
         id="path249" />
      <path
         d="m 277.53984,106.05591 q -1.96485,-0.0216 -2.93648,-1.41426 -0.97163,-1.39267 -0.71253,-3.80015 l 0.14034,-1.155166 q 0.33468,-2.720566 1.65178,-4.253584 1.32789,-1.543814 3.36832,-1.489834 1.66257,0.04318 2.49385,1.144365 0.84208,1.090386 0.7989,3.076831 l -0.0972,1.295508 -0.16194,1.11198 -6.26162,-0.0108 q -0.14034,0.97163 -0.12955,1.52222 0.0216,1.09039 0.5398,1.71655 0.5182,0.61537 1.47904,0.62616 0.69093,0.0216 1.36028,-0.26989 0.68014,-0.30229 1.42506,-1.04721 l 0.87447,1.21994 q -0.69094,0.90686 -1.70576,1.3279 -1.01481,0.42104 -2.12679,0.39944 z m 1.39267,-10.482813 q -1.91087,-0.08637 -2.67738,2.310322 l -0.29149,1.047202 4.4803,0.0108 0.054,-0.280693 q 0.0648,-0.496612 0.0648,-1.036407 -0.0432,-1.964853 -1.63018,-2.05122 z"
         id="path251" />
      <path
         d="m 286.73277,102.91431 3.50866,-8.755476 h 1.96486 L 287.01346,105.84 h -1.39267 l -1.5762,-11.681166 h 1.8353 z"
         id="path253" />
      <path
         d="m 296.68984,106.05591 q -1.96486,-0.0216 -2.93649,-1.41426 -0.97163,-1.39267 -0.71253,-3.80015 l 0.14035,-1.155166 q 0.33467,-2.720566 1.65177,-4.253584 1.3279,-1.543814 3.36832,-1.489834 1.66257,0.04318 2.49385,1.144365 0.84208,1.090386 0.7989,3.076831 l -0.0972,1.295508 -0.16194,1.11198 -6.26162,-0.0108 q -0.14035,0.97163 -0.12955,1.52222 0.0216,1.09039 0.53979,1.71655 0.5182,0.61537 1.47904,0.62616 0.69094,0.0216 1.36028,-0.26989 0.68014,-0.30229 1.42506,-1.04721 l 0.87447,1.21994 q -0.69094,0.90686 -1.70575,1.3279 -1.01482,0.42104 -2.12679,0.39944 z m 1.39267,-10.482813 q -1.91088,-0.08637 -2.67739,2.310322 l -0.29149,1.047202 4.4803,0.0108 0.054,-0.280693 q 0.0648,-0.496612 0.0648,-1.036407 -0.0432,-1.964853 -1.63018,-2.05122 z"
         id="path255" />
      <path
         d="m 304.49527,105.84 h -1.86769 l 2.8825,-16.582504 h 1.86769 z"
         id="path257" />
      <path
         d="m 308.26304,99.481212 q 0.35626,-2.515444 1.71655,-4.048462 1.37108,-1.543814 3.45468,-1.489834 1.29551,0.03239 2.15918,0.755713 0.86368,0.712529 1.23074,1.975649 0.37785,1.26312 0.20512,2.785342 l -0.12955,1.10118 q -0.35627,2.50465 -1.72735,4.02687 -1.37108,1.52222 -3.44389,1.46824 -1.29551,-0.0324 -2.15918,-0.74491 -0.86367,-0.71253 -1.24153,-1.97565 -0.36706,-1.26312 -0.19432,-2.77455 z m 1.67336,1.867688 q -0.0324,1.44665 0.44263,2.24555 0.48582,0.7989 1.45745,0.84208 1.25233,0.054 2.07281,-0.88526 0.82049,-0.95004 1.10119,-2.83933 l 0.16193,-1.263116 0.054,-0.777304 q 0.0324,-1.457447 -0.46422,-2.256343 -0.48582,-0.798897 -1.44665,-0.84208 -1.27392,-0.05398 -2.12679,1.057998 -0.84208,1.101181 -1.09039,3.066035 l -0.12955,1.06879 z"
         id="path259" />
      <path
         d="m 323.01024,106.06671 q -1.66257,-0.0432 -2.50465,-1.34949 l -1.0472,5.61387 h -1.8569 l 2.80693,-16.172256 1.67337,-0.0108 -0.21592,1.306304 q 1.18755,-1.543814 2.83932,-1.522222 1.55461,0.02159 2.32112,1.165957 0.76651,1.133569 0.70173,3.152403 -0.0324,0.939243 -0.2483,2.45067 -0.21592,1.51142 -0.63696,2.53703 -1.18755,2.9041 -3.83254,2.82853 z m 2.86091,-8.269658 q -0.16194,-2.137588 -1.8353,-2.169976 -1.27392,-0.03239 -2.26714,1.371079 l -1.0472,6.099685 q 0.5182,1.27391 1.79211,1.33869 1.26312,0.054 2.07282,-0.89606 0.80969,-0.95004 1.06879,-2.95808 0.2591,-2.008034 0.21592,-2.785338 z"
         id="path261" />
      <path
         d="m 333.41748,106.05591 q -1.96485,-0.0216 -2.93648,-1.41426 -0.97163,-1.39267 -0.71253,-3.80015 l 0.14034,-1.155166 q 0.33468,-2.720566 1.65178,-4.253584 1.32789,-1.543814 3.36832,-1.489834 1.66257,0.04318 2.49385,1.144365 0.84208,1.090386 0.7989,3.076831 l -0.0972,1.295508 -0.16194,1.11198 -6.26162,-0.0108 q -0.14034,0.97163 -0.12955,1.52222 0.0216,1.09039 0.5398,1.71655 0.5182,0.61537 1.47904,0.62616 0.69093,0.0216 1.36028,-0.26989 0.68014,-0.30229 1.42506,-1.04721 l 0.87447,1.21994 q -0.69094,0.90686 -1.70576,1.3279 -1.01481,0.42104 -2.12679,0.39944 z m 1.39267,-10.482813 q -1.91087,-0.08637 -2.67738,2.310322 l -0.29149,1.047202 4.4803,0.0108 0.054,-0.280693 q 0.0648,-0.496612 0.0648,-1.036407 -0.0432,-1.964853 -1.63018,-2.05122 z"
         id="path263" />
      <path
         d="m 345.68162,95.940157 q -0.46422,-0.09716 -0.83128,-0.09716 -1.41426,0 -2.33191,1.630181 L 341.07178,105.84 h -1.86769 l 2.02962,-11.681166 1.80292,-0.0108 -0.2591,1.198345 q 1.02561,-1.457447 2.31032,-1.425059 0.2591,0.0108 0.7989,0.161939 z"
         id="path265" />
    </g>
  </g>
</svg>
